<svg xmlns="http://www.w3.org/2000/svg" xmlns:xlink="http://www.w3.org/1999/xlink">
  <defs>
    <symbol id="add-row" width="32" height="32"><g fill="none" fill-rule="evenodd"><circle cx="16" cy="16" r="16" fill="#D0D4DA"/><path fill="#FFF" d="M20.52 16.84h-3.48v3.4h-2.58v-3.4H11V14.4h3.46V11h2.58v3.4h3.48z"/></g></symbol>
    <symbol id="delete" width="16" height="20"><path fill="#BFC4CE" fill-rule="evenodd" d="M3.429 20h9.142c1.258 0 2.286-1 2.286-2.222V4.444H1.143v13.334C1.143 19 2.17 20 3.429 20ZM12 1.111 10.857 0H5.143L4 1.111H0v2.222h16V1.111h-4Z"/></symbol>
    <symbol id="fetch-document" width="24" height="24"><g fill="none" fill-rule="evenodd"><path d="M0 0h24v24H0z"/><path fill="#8F97A8" fill-rule="nonzero" d="M4 6H2v14c0 1.1.9 2 2 2h14v-2H4V6Zm16-4H8c-1.1 0-2 .9-2 2v12c0 1.1.9 2 2 2h12c1.1 0 2-.9 2-2V4c0-1.1-.9-2-2-2Zm-1 9h-4v4h-2v-4H9V9h4V5h2v4h4v2Z"/></g></symbol>
    <symbol id="person" width="26" height="26"><g fill="none" fill-rule="evenodd"><rect width="26" height="26" fill="#34A5FF" rx="13"/><path fill="#FFF" d="m13.448 12.552 3.966 4.034-3.966.813z"/><circle cx="19.724" cy="10.759" r="1.793" fill="#FFF"/><circle cx="8.069" cy="10.759" r="1.793" fill="#FFF"/></g></symbol>
    <symbol id="upload" width="24" height="24"><g fill="none" fill-rule="evenodd"><path d="M0 0h24v24H0z"/><path fill="#8F97A8" fill-rule="nonzero" d="M9 16h6v-6h4l-7-7-7 7h4v6Zm-4 2h14v2H5v-2Z"/></g></symbol>
    <symbol id="checkmark" width="11" height="8"><path fill="#FFF" fill-rule="evenodd" d="M.404 4.975A1 1 0 1 1 1.818 3.56l1.65 1.65L8.418.26a1 1 0 1 1 1.414 1.414L4.175 7.332a1 1 0 0 1-1.414 0L.404 4.975Z"/></symbol>
  </defs>
</svg>