<svg width="16" height="16" viewBox="0 0 16 16" version="1.1" xmlns="http://www.w3.org/2000/svg" xmlns:xlink="http://www.w3.org/1999/xlink"><g stroke="none" stroke-width="1" fill="none" fill-rule="evenodd"><path d="M1,9 C1,11.209139 2.790861,13 5,13 C5.72887351,13 6.41221434,12.8050514 7.00072486,12.4644518 C6.83719252,12.4878782 6.67001185,12.5 6.5,12.5 C4.56700338,12.5 3,10.9329966 3,9 L3,3 L1,3 L1,9 Z M0,9 L0,2 L4,2 L4,9 C4,9.55228475 4.44771525,10 5,10 C5.55228475,10 6,9.55228475 6,9 L6,7 C6,4.23857625 8.23857625,2 11,2 C13.7607201,2 15.9988592,4.23743563 15.9999996,6.9978893 L16,7 L16,14 L12,14 L12,7 C12,6.44771525 11.5522847,6 11,6 C10.4477153,6 10,6.44771525 10,7 L10,9 L9.99999984,9.00105539 C9.99942961,11.7619941 7.76107195,14 5,14 C2.23857625,14 0,11.7614237 0,9 Z M9,9 L9,7 C9,5.06700338 10.5670034,3.5 12.5,3.5 C12.6700119,3.5 12.8371925,3.51212177 13.0007249,3.53554819 C12.4122143,3.1949486 11.7288735,3 11,3 C8.790861,3 7,4.790861 7,7 L7,9 C7,10.1045695 6.1045695,11 5,11 C5.41762827,11.3139553 5.9370876,11.5 6.5,11.5 C7.88015925,11.5 8.99910397,10.3816077 8.99999946,9.00165776 L9,9 Z M13,7 L13,13 L15,13 L15,7 C15,5.61928813 13.8807119,4.5 12.5,4.5 C11.9370876,4.5 11.4176283,4.68604475 10.9997563,5.00000001 L11,5 C12.1045695,5 13,5.8954305 13,7 Z" fill="#000" fill-rule="nonzero"/></g></svg>