<svg width="200" height="200" fill="none" xmlns="http://www.w3.org/2000/svg"><path d="M150.4 87.4v84.2h42V87.4c0-33-24.9-59-56.9-59s-56.9 26-56.9 59v26.5c0 9.7-6.3 17-14.9 17-8.4 0-14.7-7.3-14.7-17V29.7H7v84.2c0 33 24.9 59 56.9 59s56.9-26 56.9-59V87.4c0-9.7 6.3-16.8 14.9-16.8 8.4-.2 14.7 7.1 14.7 16.8zm-86.5 75.8c-26.5 0-46.9-21.5-46.9-49V39.7h22.6v74.4c0 1 0 1.8.3 2.9 1.8 22 18.1 38.6 38.8 38.6 5.8 0 11.5-1.3 16.3-3.9-8.6 7-19.3 11.5-31.1 11.5zm48-82.6c-.5 2.1-.8 4.5-.8 6.8v26.5c0 3.7-.3 7.1-1 10.5-4.2 15.2-16.5 25.7-31.7 25.7-10 0-18.6-4.5-24.7-11.8 3.1 1.6 6.8 2.4 10.5 2.4 13.9 0 24.7-11.8 24.7-26.7V87.4c0-27.5 20.7-49 46.9-49 11 0 21.2 3.9 29.1 10.2-4.5-2.1-9.4-3.1-14.7-3.1-19.7-.1-35.2 14.9-38.3 35.1zM125 63.3c6-7.6 14.9-12.3 25.2-12.3 14.2 0 25.4 8.7 30.7 22 1.3 4.5 2.1 9.4 2.1 14.4v74.2h-22.6V87.4c0-14.9-10.8-26.7-24.7-26.7-3.9 0-7.6 1-10.7 2.6z" fill="#859EFF"/></svg>