<svg
  version="1.2"
  xmlns="http://www.w3.org/2000/svg"
  xmlns:xlink="http://www.w3.org/1999/xlink"
  x="0px"
  y="0px"
  viewBox="0 0 30 30"
  xml:space="preserve"
  fill="white"
  width="2rem"
>
	<path
				d="M14.34,12.85h6.23l1.7-5.33l1.24,0.4l-2.01,6.29l-0.06-0.02v0.02h-7.11V12.85z M26.51,23.19l-2.38,0.91l-2.51-7.52
		c0,0-1.02-2.03-3.39-2.03c-1.4,0-3.73,0-5.42,0v-2.03h5.76v-2.37h-5.76V6.63c1.18-0.36,2.03-1.46,2.03-2.75
		c0-1.59-1.29-2.88-2.88-2.88S9.09,2.29,9.09,3.88c0,0.71,0.26,1.35,0.68,1.85v11.18h1.18l7.63,0.34l3.47,8.46l0.46,1.21l4.75-1.8
		L26.51,23.19z M12.39,26.83c-4.12,0-7.47-3.35-7.47-7.47c0-2.9,1.65-5.47,4.16-6.7l0-2.35c-3.77,1.37-6.33,4.96-6.33,9.05
		c0,5.31,4.32,9.63,9.63,9.63c3.6,0,6.74-1.93,8.39-4.87l-1.15-2.96C18.82,24.42,15.83,26.83,12.39,26.83z"
	></path>
</svg>